<?xml version="1.0" encoding="UTF-8"?>
<svg width="21px" height="12px" viewBox="0 0 21 12" version="1.1" xmlns="http://www.w3.org/2000/svg" xmlns:xlink="http://www.w3.org/1999/xlink">
    <title>Arrow</title>
    <g id="Page-1" stroke="none" stroke-width="1" fill="none" fill-rule="evenodd">
        <g id="소분류-페이지" transform="translate(-267.000000, -288.000000)" fill="#212121" fill-rule="nonzero">
            <path d="M277.5625,299.996094 C277.734375,299.996094 277.896484,299.964844 278.048828,299.902344 C278.201172,299.839844 278.335938,299.738281 278.453125,299.597656 L286.960938,290.902344 C287.195312,290.675781 287.3125,290.402344 287.3125,290.082031 C287.3125,289.863281 287.259766,289.664062 287.154297,289.484375 C287.048828,289.304688 286.908203,289.162109 286.732422,289.056641 C286.556641,288.951172 286.355469,288.898438 286.128906,288.898438 C285.808594,288.898438 285.527344,289.015625 285.285156,289.25 L277.568,297.154 L269.839844,289.25 C269.605469,289.015625 269.328125,288.898438 269.007812,288.898438 C268.78125,288.898438 268.580078,288.951172 268.404297,289.056641 C268.228516,289.162109 268.087891,289.304688 267.982422,289.484375 C267.876953,289.664062 267.824219,289.863281 267.824219,290.082031 C267.824219,290.246094 267.855469,290.396484 267.917969,290.533203 C267.980469,290.669922 268.066406,290.792969 268.175781,290.902344 L276.671875,299.609375 C276.9375,299.867188 277.234375,299.996094 277.5625,299.996094 Z" id="Arrow" transform="translate(277.568359, 294.447266) rotate(180.000000) translate(-277.568359, -294.447266) "></path>
        </g>
    </g>
</svg>