<?xml version="1.0" encoding="UTF-8"?>
<svg width="39px" height="34px" viewBox="0 0 39 34" version="1.1" xmlns="http://www.w3.org/2000/svg" xmlns:xlink="http://www.w3.org/1999/xlink">
    <title>Cart</title>
    <g id="Page-1" stroke="none" stroke-width="1" fill="none" fill-rule="evenodd">
        <g id="장바구니-페이지" transform="translate(-1814.000000, -78.000000)" fill="#212121" fill-rule="nonzero">
            <path d="M1847.31641,103.451172 C1847.69141,103.451172 1848.01367,103.322266 1848.2832,103.064453 C1848.55273,102.806641 1848.6875,102.472656 1848.6875,102.0625 C1848.6875,101.664062 1848.55273,101.335938 1848.2832,101.078125 C1848.01367,100.820312 1847.69141,100.691406 1847.31641,100.691406 L1828.2793,100.691406 C1827.8457,100.691406 1827.5,100.550781 1827.24219,100.269531 C1826.98438,99.9882812 1826.81445,99.6191406 1826.73242,99.1621094 L1826.481,97.44 L1847.4043,97.4394531 C1848.6582,97.4394531 1849.61914,97.0820312 1850.28711,96.3671875 C1850.95508,95.6523438 1851.38281,94.6796875 1851.57031,93.4492188 L1852.83594,84.90625 C1852.85938,84.8007812 1852.87695,84.6835938 1852.88867,84.5546875 C1852.90039,84.4257812 1852.90625,84.3203125 1852.90625,84.2382812 C1852.90625,83.8046875 1852.75684,83.4472656 1852.45801,83.1660156 C1852.15918,82.8847656 1851.74609,82.7441406 1851.21875,82.7441406 L1824.344,82.745 L1824.06055,80.7929688 C1823.9668,80.1132812 1823.75,79.5976562 1823.41016,79.2460938 C1823.07031,78.8945312 1822.45508,78.71875 1821.56445,78.71875 L1815.79883,78.71875 C1815.42383,78.71875 1815.0957,78.8623047 1814.81445,79.1494141 C1814.5332,79.4365234 1814.39258,79.7792969 1814.39258,80.1777344 C1814.39258,80.5644531 1814.5332,80.8984375 1814.81445,81.1796875 C1815.0957,81.4609375 1815.42383,81.6015625 1815.79883,81.6015625 L1821.19531,81.6015625 L1823.81445,99.4960938 C1823.99023,100.714844 1824.41211,101.678711 1825.08008,102.387695 C1825.74805,103.09668 1826.70312,103.451172 1827.94531,103.451172 L1847.31641,103.451172 Z M1826.08,94.679 L1824.745,85.504 L1849.74219,85.5039062 L1848.63477,93.1679688 C1848.56445,93.625 1848.40625,93.9882812 1848.16016,94.2578125 C1847.91406,94.5273438 1847.56836,94.6621094 1847.12305,94.6621094 L1826.08,94.679 Z M1829.28125,111.660156 C1830.06641,111.660156 1830.73145,111.390625 1831.27637,110.851562 C1831.82129,110.3125 1832.09375,109.650391 1832.09375,108.865234 C1832.09375,108.091797 1831.82129,107.432617 1831.27637,106.887695 C1830.73145,106.342773 1830.06641,106.070312 1829.28125,106.070312 C1828.76562,106.070312 1828.29395,106.193359 1827.86621,106.439453 C1827.43848,106.685547 1827.09863,107.019531 1826.84668,107.441406 C1826.59473,107.863281 1826.46875,108.337891 1826.46875,108.865234 C1826.46875,109.650391 1826.74121,110.3125 1827.28613,110.851562 C1827.83105,111.390625 1828.49609,111.660156 1829.28125,111.660156 Z M1844.75,111.660156 C1845.52344,111.660156 1846.18262,111.390625 1846.72754,110.851562 C1847.27246,110.3125 1847.54492,109.650391 1847.54492,108.865234 C1847.54492,108.091797 1847.27246,107.432617 1846.72754,106.887695 C1846.18262,106.342773 1845.52344,106.070312 1844.75,106.070312 C1843.96484,106.070312 1843.29688,106.342773 1842.74609,106.887695 C1842.19531,107.432617 1841.91992,108.091797 1841.91992,108.865234 C1841.91992,109.650391 1842.19531,110.3125 1842.74609,110.851562 C1843.29688,111.390625 1843.96484,111.660156 1844.75,111.660156 Z" id="Cart"></path>
        </g>
    </g>
</svg>