<?xml version="1.0" encoding="UTF-8"?>
<svg width="34px" height="31px" viewBox="0 0 34 31" version="1.1" xmlns="http://www.w3.org/2000/svg" xmlns:xlink="http://www.w3.org/1999/xlink">
    <title>Heart</title>
    <g id="Page-1" stroke="none" stroke-width="1" fill="none" fill-rule="evenodd">
        <g id="장바구니-페이지" transform="translate(-1743.000000, -79.000000)" fill="#212121" fill-rule="nonzero">
            <path d="M1759.74219,109.955078 C1759.94141,109.955078 1760.16699,109.896484 1760.41895,109.779297 C1760.6709,109.662109 1760.91406,109.527344 1761.14844,109.375 C1764.25391,107.382812 1766.94922,105.288086 1769.23438,103.09082 C1771.51953,100.893555 1773.28906,98.6376953 1774.54297,96.3232422 C1775.79688,94.0087891 1776.42383,91.6679688 1776.42383,89.3007812 C1776.42383,87.8007812 1776.18066,86.4267578 1775.69434,85.1787109 C1775.20801,83.9306641 1774.53125,82.8496094 1773.66406,81.9355469 C1772.79688,81.0214844 1771.7832,80.3154297 1770.62305,79.8173828 C1769.46289,79.3193359 1768.20312,79.0703125 1766.84375,79.0703125 C1765.28516,79.0703125 1763.89648,79.4072266 1762.67773,80.0810547 C1761.45898,80.7548828 1760.48047,81.6425781 1759.74219,82.7441406 C1759.00391,81.6542969 1758.02539,80.7695312 1756.80664,80.0898438 C1755.58789,79.4101562 1754.19336,79.0703125 1752.62305,79.0703125 C1751.26367,79.0703125 1750.00391,79.3193359 1748.84375,79.8173828 C1747.68359,80.3154297 1746.66992,81.0214844 1745.80273,81.9355469 C1744.93555,82.8496094 1744.26172,83.9306641 1743.78125,85.1787109 C1743.30078,86.4267578 1743.06055,87.8007812 1743.06055,89.3007812 C1743.06055,91.6679688 1743.68457,94.0087891 1744.93262,96.3232422 C1746.18066,98.6376953 1747.9502,100.893555 1750.24121,103.09082 C1752.53223,105.288086 1755.22461,107.382812 1758.31836,109.375 C1758.55273,109.527344 1758.79883,109.662109 1759.05664,109.779297 C1759.31445,109.896484 1759.54297,109.955078 1759.74219,109.955078 Z M1759.74219,106.685547 C1759.69531,106.685547 1759.58984,106.632812 1759.42578,106.527344 C1757.66797,105.355469 1755.99512,104.083984 1754.40723,102.712891 C1752.81934,101.341797 1751.4043,99.9091797 1750.16211,98.4150391 C1748.91992,96.9208984 1747.93848,95.4033203 1747.21777,93.8623047 C1746.49707,92.3212891 1746.13672,90.8007812 1746.13672,89.3007812 C1746.13672,87.859375 1746.42383,86.6025391 1746.99805,85.5302734 C1747.57227,84.4580078 1748.35449,83.6201172 1749.34473,83.0166016 C1750.33496,82.4130859 1751.45703,82.1113281 1752.71094,82.1113281 C1753.73047,82.1113281 1754.6123,82.2900391 1755.35645,82.6474609 C1756.10059,83.0048828 1756.73047,83.453125 1757.24609,83.9921875 C1757.76172,84.53125 1758.20117,85.0644531 1758.56445,85.5917969 C1758.78711,85.9316406 1758.98633,86.1660156 1759.16211,86.2949219 C1759.33789,86.4238281 1759.53125,86.4882812 1759.74219,86.4882812 C1759.95312,86.4882812 1760.14062,86.4238281 1760.30469,86.2949219 C1760.46875,86.1660156 1760.66797,85.9316406 1760.90234,85.5917969 C1761.28906,85.0644531 1761.74316,84.5341797 1762.26465,84.0009766 C1762.78613,83.4677734 1763.41016,83.0195312 1764.13672,82.65625 C1764.86328,82.2929688 1765.73633,82.1113281 1766.75586,82.1113281 C1768.02148,82.1113281 1769.14941,82.4130859 1770.13965,83.0166016 C1771.12988,83.6201172 1771.91211,84.4580078 1772.48633,85.5302734 C1773.06055,86.6025391 1773.34766,87.859375 1773.34766,89.3007812 C1773.34766,90.8007812 1772.9873,92.3212891 1772.2666,93.8623047 C1771.5459,95.4033203 1770.56445,96.9208984 1769.32227,98.4150391 C1768.08008,99.9091797 1766.66211,101.341797 1765.06836,102.712891 C1763.47461,104.083984 1761.80469,105.355469 1760.05859,106.527344 C1759.89453,106.632812 1759.78906,106.685547 1759.74219,106.685547 Z" id="Heart"></path>
        </g>
    </g>
</svg>