<?xml version="1.0" encoding="UTF-8"?>
<svg width="130px" height="19px" viewBox="0 0 130 19" version="1.1" xmlns="http://www.w3.org/2000/svg" xmlns:xlink="http://www.w3.org/1999/xlink">
    <title>logo</title>
    <g id="Page-1" stroke="none" stroke-width="1" fill="none" fill-rule="evenodd">
        <g id="장바구니-페이지" transform="translate(-65.000000, -85.000000)" fill="#0D0A4D" fill-rule="nonzero">
            <g id="logo" transform="translate(65.000000, 85.000000)">
                <path d="M24.6172206,18.8737177 L24.6172206,11.732311 L27.1346107,11.732311 L30.8495939,18.8737177 L34.8823061,18.8737177 L30.6540684,11.1456955 C31.6968708,10.7206117 32.5319273,10.0659828 33.1592381,9.18180861 C33.7865489,8.29763445 34.1002043,7.1414067 34.1002043,5.71312537 C34.1002043,4.62491101 33.9250462,3.71523182 33.5747298,2.9840878 C33.2244133,2.25294378 32.7437466,1.66632823 32.1327295,1.22424115 C31.5217126,0.782154067 30.8007125,0.467592106 29.9697294,0.280555264 C29.1387463,0.0935184211 28.250735,0 27.3056954,0 L21,0 L21,18.8737177 L24.6172206,18.8737177 Z M113.448229,0.0247074122 C112.535777,1.17771998 111.635545,2.31837886 110.747534,3.44668401 C109.859522,4.57498917 108.967437,5.71564805 108.071279,6.86866062 L108.071279,6.86866062 L107.826872,7.09102732 L107.460262,7.46163851 L107.72911,7.33810144 C108.006104,7.2392718 108.315686,7.16514955 108.657855,7.11573473 C109.000025,7.06631991 109.350341,7.0416125 109.708805,7.0416125 C110.409438,7.0416125 111.093777,7.15691376 111.761822,7.38751628 C112.429867,7.61811879 113.016443,7.96814047 113.521551,8.43758129 C114.026658,8.90702213 114.434003,9.49588213 114.743585,10.2041613 C115.053167,10.9124404 115.207958,11.7360208 115.207958,12.6749025 C115.207958,13.5478977 115.049093,14.3673602 114.731364,15.13329 C114.413636,15.8992198 113.96963,16.5704379 113.399347,17.1469442 C112.829065,17.7234505 112.136579,18.1764196 111.321889,18.5058518 C110.5072,18.835284 109.611042,19 108.633415,19 C107.639494,19 106.747409,18.8394018 105.95716,18.5182055 C105.166912,18.1970092 104.494793,17.7481578 103.940804,17.1716515 C103.386815,16.5951452 102.959104,15.8951019 102.657669,15.0715215 C102.356233,14.2479411 102.205516,13.3420026 102.205516,12.3537061 C102.205516,11.5136541 102.392895,10.6200694 102.767652,9.6729519 C103.142409,8.72583443 103.680104,7.76636327 104.380736,6.79453837 L104.380736,6.79453837 L106.262669,4.24967492 L109.342194,0.0247074122 L113.448229,0.0247074122 Z M129.364542,0.0494148246 L129.364542,3.08842654 L122.496711,3.08842654 L121.885694,6.69570873 C122.260452,6.6298223 122.622988,6.58452538 122.973305,6.55981795 C123.323621,6.53511054 123.661717,6.52275685 123.987593,6.52275685 C124.96522,6.52275685 125.828791,6.67100132 126.578305,6.96749026 C127.327819,7.26397921 127.95513,7.67165152 128.460237,8.19050717 C128.965345,8.70936283 129.348249,9.32293024 129.608949,10.0312094 C129.86965,10.7394885 130,11.4971825 130,12.3042913 C130,13.2925878 129.824842,14.1985263 129.474525,15.0221067 C129.124209,15.845687 128.639469,16.5498483 128.020305,17.1345904 C127.401141,17.7193324 126.667921,18.1723018 125.820644,18.4934981 C124.973367,18.8146944 124.060915,18.9752927 123.083288,18.9752927 C122.513005,18.9752927 121.967163,18.9135241 121.445762,18.7899871 C120.924361,18.66645 120.431474,18.5017339 119.967101,18.2958387 C119.502728,18.0899437 119.066869,17.8552233 118.659525,17.5916776 C118.25218,17.3281318 117.893717,17.0481145 117.584135,16.7516255 L117.584135,16.7516255 L119.294982,14.2314695 C119.702327,14.5773732 120.015982,14.8244474 120.235949,14.9726918 C120.455915,15.1209363 120.696248,15.2650629 120.956949,15.4050716 C121.217649,15.5450803 121.543525,15.6850889 121.934576,15.8250976 C122.325627,15.9651063 122.773706,16.0351106 123.278813,16.0351106 C124.386791,16.0351106 125.238141,15.7056784 125.832864,15.0468141 C126.427587,14.3879498 126.724949,13.5231903 126.724949,12.4525358 C126.724949,11.4642393 126.435734,10.6900737 125.857305,10.130039 C125.278875,9.57000436 124.435672,9.30645862 123.327695,9.33940184 C122.871468,9.37234506 122.419316,9.4382315 121.971237,9.53706114 C121.523158,9.63589079 121.087299,9.75942784 120.66366,9.90767232 L120.66366,9.90767232 L118.610643,9.28998702 C119.376451,4.69440833 119.881559,1.6142176 120.125965,0.0494148246 L120.125965,0.0494148246 L129.364542,0.0494148246 Z M45.3483482,0 C46.5377946,0 47.6294783,0.212984661 48.6233993,0.638953985 C49.6173203,1.06492331 50.472744,1.67520628 51.1896706,2.46980291 C51.9065973,3.26439953 52.460586,4.24330981 52.8516369,5.40653373 C53.2426877,6.56975765 53.4382132,7.8886242 53.4382132,9.3631334 C53.4382132,10.8376426 53.2426877,12.160605 52.8516369,13.3320207 C52.460586,14.5034363 51.9065973,15.5028259 51.1896706,16.3301894 C50.472744,17.1575528 49.6173203,17.7883151 48.6233993,18.2224761 C47.6294783,18.6566372 46.5377946,18.8737177 45.3483482,18.8737177 C44.142608,18.8737177 43.0468509,18.6566372 42.0610768,18.2224761 C41.0753027,17.7883151 40.2239524,17.1575528 39.5070258,16.3301894 C38.7900992,15.5028259 38.2361104,14.5034363 37.8450596,13.3320207 C37.4540088,12.160605 37.2584833,10.8376426 37.2584833,9.3631334 C37.2584833,7.8886242 37.4540088,6.56975765 37.8450596,5.40653373 C38.2361104,4.24330981 38.7900992,3.26030367 39.5070258,2.45751532 C40.2239524,1.65472699 41.0753027,1.04444401 42.0610768,0.626666408 C43.0468509,0.208888803 44.142608,0 45.3483482,0 Z M59.4669142,0 L59.4669142,10.5132115 C59.4669142,11.4810944 59.5443097,12.2946167 59.6991006,12.9537784 C59.8538916,13.6129401 60.0779312,14.1427726 60.3712194,14.5432758 C60.6645075,14.9437791 61.0229708,15.2316409 61.4466092,15.406861 C61.8702477,15.5820813 62.3509144,15.6696913 62.8886093,15.6696913 C63.4263042,15.6696913 63.9110445,15.5820813 64.3428298,15.406861 C64.774615,15.2316409 65.1452987,14.9437791 65.4548807,14.5432758 C65.7644626,14.1427726 66.0007226,13.6129401 66.1636604,12.9537784 C66.3265982,12.2946167 66.4080672,11.4810944 66.4080672,10.5132115 L66.4080672,10.5132115 L66.4080672,0 L69.8786437,0 L69.8786437,10.1878025 C69.8786437,11.7230652 69.7238528,13.0413885 69.4142708,14.1427726 C69.1046888,15.2441566 68.6484628,16.145289 68.0455928,16.8461698 C67.4427226,17.5470506 66.7095022,18.0601953 65.8459315,18.3856044 C64.9823609,18.7110133 63.9965868,18.8737177 62.8886093,18.8737177 C61.7806318,18.8737177 60.7948578,18.7110133 59.9312871,18.3856044 C59.0677164,18.0601953 58.3304226,17.5470506 57.7194056,16.8461698 C57.1083886,16.145289 56.6440157,15.2441566 56.3262868,14.1427726 C56.008558,13.0413885 55.8496936,11.7230652 55.8496936,10.1878025 L55.8496936,10.1878025 L55.8496936,0 L59.4669142,0 Z M86.0882455,0 L86.0882455,3.13711794 L80.9557028,3.13711794 L80.9557028,18.8737177 L77.3384823,18.8737177 L77.3384823,3.13711794 L72.2548208,3.13711794 L72.2548208,0 L86.0882455,0 Z M99.8293389,0 L99.8293389,3.13711794 L92.0816434,3.13711794 L92.0816434,7.49847703 L99.8293389,7.49847703 L99.8293389,10.6611 L92.0816434,10.6611 L92.0816434,15.7110947 L99.8293389,15.7110947 L99.8293389,18.8737177 L88.4644228,18.8737177 L88.4644228,0 L99.8293389,0 Z M108.701305,9.61118338 C107.723678,9.61118338 106.949724,9.90767232 106.379441,10.5006502 C105.809158,11.0936281 105.524017,11.8760295 105.524017,12.8478544 C105.524017,13.9020373 105.813232,14.7256177 106.391661,15.3185956 C106.970091,15.9115735 107.731825,16.2080625 108.676865,16.2080625 C109.133091,16.2080625 109.564876,16.1298223 109.972221,15.973342 C110.379565,15.8168617 110.738029,15.5903772 111.047611,15.2938882 C111.357193,14.9973993 111.597526,14.6432597 111.768611,14.2314695 C111.939696,13.8196793 112.025238,13.36671 112.025238,12.8725618 C112.025238,11.8019073 111.719729,10.9906806 111.108712,10.4388817 C110.497696,9.88708281 109.695226,9.61118338 108.701305,9.61118338 Z M45.3836515,3.03901172 C44.0312671,3.03901172 42.9599506,3.59081058 42.169702,4.69440833 C41.3794535,5.79800608 40.984329,7.33810144 40.984329,9.31469443 C40.984329,10.2865193 41.0861653,11.1677504 41.2898376,11.9583875 C41.4935099,12.7490247 41.7867981,13.4243607 42.169702,13.9843954 C42.552606,14.54443 43.0169789,14.9726918 43.5628208,15.2691807 C44.1086627,15.5656697 44.7156061,15.7139142 45.3836515,15.7139142 C46.0516967,15.7139142 46.6586402,15.5656697 47.204482,15.2691807 C47.7503239,14.9726918 48.2146968,14.54443 48.5976008,13.9843954 C48.9805048,13.4243607 49.273793,12.7490247 49.4774653,11.9583875 C49.6811377,11.1677504 49.7829737,10.2865193 49.7829737,9.31469443 C49.7829737,7.33810144 49.3878495,5.79800608 48.5976008,4.69440833 C47.8073521,3.59081058 46.7360357,3.03901172 45.3836515,3.03901172 Z M26.9635258,3.08842654 C28.1366785,3.08842654 29.0287632,3.27873273 29.6397802,3.6593451 C30.2507972,4.03995749 30.5563058,4.71615183 30.5563058,5.68792812 C30.5563058,6.65970442 30.2507972,7.38448758 29.6397802,7.86227759 C29.0287632,8.3400676 28.1366785,8.5789626 26.9635258,8.5789626 L24.6172206,8.5789626 L24.6172206,3.08842654 L26.9635258,3.08842654 Z" id="ROUTE65"></path>
                <g id="로고">
                    <rect id="Rectangle" x="0" y="0" width="4.57067977" height="19"></rect>
                    <rect id="Rectangle" x="6.85601966" y="0" width="9.14135954" height="4.75"></rect>
                    <rect id="Rectangle" x="6.85601966" y="7.125" width="9.14135954" height="4.75"></rect>
                    <rect id="Rectangle" x="6.85601966" y="14.25" width="9.14135954" height="4.75"></rect>
                </g>
            </g>
        </g>
    </g>
</svg>