<?xml version="1.0" encoding="UTF-8"?>
<svg width="22px" height="26px" viewBox="0 0 22 26" version="1.1" xmlns="http://www.w3.org/2000/svg" xmlns:xlink="http://www.w3.org/1999/xlink">
    <title>Trash</title>
    <g id="Page-1" stroke="none" stroke-width="1" fill="none" fill-rule="evenodd">
        <g id="장바구니-페이지" transform="translate(-1197.000000, -345.000000)" fill="#333D4B" fill-rule="nonzero">
            <g id="Group-15" transform="translate(368.000000, 215.000000)">
                <g id="Group-11" transform="translate(0.000000, 70.000000)">
                    <path d="M845.136719,85.4335938 C845.964844,85.4335938 846.630859,85.1933594 847.134766,84.7128906 C847.638672,84.2324219 847.910156,83.5742188 847.949219,82.7382812 L848.710938,66.7070312 L849.976562,66.7070312 C850.234375,66.7070312 850.453125,66.6191406 850.632812,66.4433594 C850.8125,66.2675781 850.902344,66.046875 850.902344,65.78125 C850.902344,65.53125 850.8125,65.3183594 850.632812,65.1425781 C850.453125,64.9667969 850.234375,64.8789062 849.976562,64.8789062 L844.996,64.879 L844.996094,63.203125 C844.996094,62.375 844.744141,61.7265625 844.240234,61.2578125 C843.736328,60.7890625 843.035156,60.5546875 842.136719,60.5546875 L837.929688,60.5546875 C837.039062,60.5546875 836.341797,60.7890625 835.837891,61.2578125 C835.333984,61.7265625 835.082031,62.375 835.082031,63.203125 L835.082,64.879 L830.113281,64.8789062 C829.863281,64.8789062 829.648438,64.9667969 829.46875,65.1425781 C829.289062,65.3183594 829.199219,65.53125 829.199219,65.78125 C829.199219,66.046875 829.289062,66.2675781 829.46875,66.4433594 C829.648438,66.6191406 829.863281,66.7070312 830.113281,66.7070312 L831.378906,66.7070312 L832.140625,82.75 C832.179688,83.578125 832.451172,84.2324219 832.955078,84.7128906 C833.458984,85.1933594 834.128906,85.4335938 834.964844,85.4335938 L845.136719,85.4335938 Z M843.062,64.879 L837.015,64.879 L837.015625,63.3085938 C837.015625,63.0117188 837.111328,62.7734375 837.302734,62.59375 C837.494141,62.4140625 837.746094,62.3242188 838.058594,62.3242188 L842.007812,62.3242188 C842.328125,62.3242188 842.583984,62.4140625 842.775391,62.59375 C842.966797,62.7734375 843.0625,63.0117188 843.0625,63.3085938 L843.062,64.879 Z M844.925781,83.59375 L835.164062,83.59375 C834.84375,83.59375 834.580078,83.4882812 834.373047,83.2773438 C834.166016,83.0664062 834.054688,82.8007812 834.039062,82.4804688 L833.289062,66.7070312 L846.777344,66.7070312 L846.050781,82.4804688 C846.035156,82.8085938 845.925781,83.0761719 845.722656,83.2832031 C845.519531,83.4902344 845.253906,83.59375 844.925781,83.59375 Z M836.769531,81.7539062 C836.996094,81.7539062 837.175781,81.6894531 837.308594,81.5605469 C837.441406,81.4316406 837.503906,81.2617188 837.496094,81.0507812 L837.15625,69.3320312 C837.15625,69.1210938 837.087891,68.953125 836.951172,68.828125 C836.814453,68.703125 836.644531,68.640625 836.441406,68.640625 C836.214844,68.640625 836.033203,68.7050781 835.896484,68.8339844 C835.759766,68.9628906 835.695312,69.1328125 835.703125,69.34375 L836.03125,81.0507812 C836.039062,81.2695312 836.109375,81.4414062 836.242188,81.5664062 C836.375,81.6914062 836.550781,81.7539062 836.769531,81.7539062 Z M840.050781,81.7539062 C840.269531,81.7539062 840.449219,81.6894531 840.589844,81.5605469 C840.730469,81.4316406 840.800781,81.265625 840.800781,81.0625 L840.800781,69.34375 C840.800781,69.1328125 840.730469,68.9628906 840.589844,68.8339844 C840.449219,68.7050781 840.269531,68.640625 840.050781,68.640625 C839.824219,68.640625 839.642578,68.7050781 839.505859,68.8339844 C839.369141,68.9628906 839.300781,69.1328125 839.300781,69.34375 L839.300781,81.0625 C839.300781,81.265625 839.369141,81.4316406 839.505859,81.5605469 C839.642578,81.6894531 839.824219,81.7539062 840.050781,81.7539062 Z M843.320312,81.7539062 C843.539062,81.7539062 843.714844,81.6914062 843.847656,81.5664062 C843.980469,81.4414062 844.050781,81.2734375 844.058594,81.0625 L844.386719,69.34375 C844.402344,69.1328125 844.341797,68.9628906 844.205078,68.8339844 C844.068359,68.7050781 843.886719,68.640625 843.660156,68.640625 C843.457031,68.640625 843.287109,68.703125 843.150391,68.828125 C843.013672,68.953125 842.941406,69.125 842.933594,69.34375 L842.605469,81.0507812 C842.589844,81.2617188 842.648438,81.4316406 842.78125,81.5605469 C842.914062,81.6894531 843.09375,81.7539062 843.320312,81.7539062 Z" id="Trash"></path>
                </g>
            </g>
        </g>
    </g>
</svg>